<?xml version="1.0" encoding="UTF-8" standalone="no"?>
<svg
   width="90.648895mm"
   height="53.645111mm"
   viewBox="0 0 90.648895 53.645111"
   version="1.1"
   id="svg8"
   inkscape:version="1.1 (c68e22c387, 2021-05-23)"
   sodipodi:docname="Isologotipo-Invertido.svg"
   xmlns:inkscape="http://www.inkscape.org/namespaces/inkscape"
   xmlns:sodipodi="http://sodipodi.sourceforge.net/DTD/sodipodi-0.dtd"
   xmlns="http://www.w3.org/2000/svg"
   xmlns:svg="http://www.w3.org/2000/svg"
   xmlns:rdf="http://www.w3.org/1999/02/22-rdf-syntax-ns#"
   xmlns:cc="http://creativecommons.org/ns#"
   xmlns:dc="http://purl.org/dc/elements/1.1/">
  <defs
     id="defs2" />
  <sodipodi:namedview
     id="base"
     pagecolor="#ffffff"
     bordercolor="#666666"
     borderopacity="1.0"
     inkscape:pageopacity="0.0"
     inkscape:pageshadow="2"
     inkscape:zoom="1.979899"
     inkscape:cx="94.7018"
     inkscape:cy="95.206877"
     inkscape:document-units="mm"
     inkscape:current-layer="g876"
     inkscape:document-rotation="0"
     showgrid="false"
     fit-margin-top="0"
     fit-margin-left="0"
     fit-margin-right="0"
     fit-margin-bottom="0"
     inkscape:window-width="1920"
     inkscape:window-height="1001"
     inkscape:window-x="2391"
     inkscape:window-y="232"
     inkscape:window-maximized="1"
     inkscape:pagecheckerboard="0" />
  <metadata
     id="metadata5">
    <rdf:RDF>
      <cc:Work
         rdf:about="">
        <dc:format>image/svg+xml</dc:format>
        <dc:type
           rdf:resource="http://purl.org/dc/dcmitype/StillImage" />
      </cc:Work>
    </rdf:RDF>
  </metadata>
  <g
     inkscape:label="Layer 1"
     inkscape:groupmode="layer"
     id="layer1"
     transform="translate(-31.782696,-95.64173)">
    <g
       id="g876"
       transform="matrix(0.26458333,0,0,0.26458333,10.909717,56.277863)">
      <path
         class="st0"
         d="m 159.71,266.42 h 6.49 l -19.38,57.88 h -6.97 l -17.51,-49.45 h -0.16 L 105.07,324.3 H 98.1 L 78.89,266.42 h 6.65 l 16.05,49.94 h 0.16 l 17.11,-49.94 h 7.38 l 17.11,49.94 h 0.16 z"
         id="path835"
         style="fill:#ffffff" />
      <path
         class="st0"
         d="m 171.38,265.94 h 6 v 8.92 h -6 z m 0,16.21 h 6 l 0.08,42.16 h -6 z"
         id="path837"
         style="fill:#ffffff" />
      <path
         class="st0"
         d="m 223.91,297.15 c 0,-8.43 -5.19,-11.27 -12.73,-11.27 -11.76,0 -17.11,5.92 -17.11,15.57 l 0.08,22.86 h -6 l -0.08,-42.16 h 6 v 8.27 h 0.16 c 1.7,-4.54 8.11,-9.57 17.43,-9.57 13.94,0 18.24,7.3 18.24,17.35 l 0.08,26.1 h -6 z"
         id="path839"
         style="fill:#ffffff" />
      <path
         class="st0"
         d="m 279.6,315.87 h -0.16 c -1.7,3.57 -6.89,9.73 -17.19,9.73 -17.19,0 -22.94,-12.08 -22.94,-22.38 0,-11.75 7.22,-22.37 22.94,-22.37 8.03,0 14.43,4.38 17.19,9.73 h 0.16 v -24.64 h 6 l 0.08,58.37 h -6 z m -17.35,-29.99 c -9.49,0 -16.94,6.65 -16.94,17.35 0,8.43 4.7,17.35 16.94,17.35 9.97,0 17.67,-6.32 17.67,-17.35 0.01,-8.68 -5.42,-17.35 -17.67,-17.35 z"
         id="path841"
         style="fill:#ffffff" />
      <path
         class="st0"
         d="m 330.92,282.15 h 6.49 l -27.25,60.87 c -3,6.65 -5.76,8.51 -12.32,8.51 h -2.92 c -0.97,0 -1.95,-0.08 -2.84,-0.16 v -5.03 c 1.3,0.08 2.68,0.16 4.3,0.16 4.3,0 6.4,-0.97 8.35,-5.19 l 7.14,-16.69 -20.43,-42.48 h 6.41 l 17.19,35.1 z"
         id="path843"
         style="fill:#ffffff" />
      <path
         class="st1"
         d="m 345.68,299.83 v -31.7 h 10.43 v 31.3 c 0,11.56 5.22,16.53 14.28,16.53 9.07,0 14.2,-4.97 14.2,-16.53 v -31.3 h 10.27 v 31.7 c 0,16.37 -9.23,25.28 -24.56,25.28 -15.4,0 -24.62,-8.91 -24.62,-25.28 z"
         id="path845"
         style="fill:#49d9e8;fill-opacity:1" />
      <path
         class="st1"
         d="M 411.07,268.13 H 421.5 V 324.3 H 411.07 Z"
         id="path847"
         style="fill:#49d9e8;fill-opacity:1" />
      <path
         class="st0"
         d="m 288.32,228.15 c -6.95,0 -12.58,5.63 -12.58,12.58 0,6.95 5.63,12.58 12.58,12.58 6.95,0 12.58,-5.63 12.58,-12.58 0,-6.95 -5.63,-12.58 -12.58,-12.58 z m 0,19.15 c -3.63,0 -6.58,-2.95 -6.58,-6.58 0,-3.63 2.95,-6.58 6.58,-6.58 3.63,0 6.58,2.95 6.58,6.58 0,3.64 -2.94,6.58 -6.58,6.58 z"
         id="path849" />
      <path
         class="st1"
         d="m 302.47,177.37 -1.41,0.28 c 1.64,10.27 -1.78,20.8 -9.15,28.17 -12.67,12.67 -33.19,12.75 -45.76,0.18 -12.57,-12.56 -12.48,-33.09 0.18,-45.76 0.21,-0.21 0.43,-0.42 0.65,-0.62 l 0.02,0.02 c 10.46,-9.31 26.37,-8.89 36.2,0.94 10.26,10.26 10.2,27.02 -0.14,37.36 -4.34,4.34 -10.08,7.07 -16.16,7.68 l 0.05,1.43 c 8.08,0.22 15.67,-2.8 21.37,-8.51 11.35,-11.35 11.35,-29.82 0,-41.17 -5.03,-5.03 -11.73,-8.03 -18.85,-8.44 -11.11,-1 -22,2.93 -29.86,10.8 -14.6,14.6 -14.6,38.36 0,52.96 7.61,7.61 18.04,11.55 28.76,10.89 -1.52,5.3 -4.36,10.13 -8.26,14.03 -12.67,12.67 -33.19,12.75 -45.76,0.18 -11.03,-11.03 -12.41,-28.49 -3.53,-41.26 -1.77,-0.36 -2.98,-1.46 -3.65,-2.85 -1.59,0.02 -4.42,3.55 -6.66,8.15 -6.85,14.3 -3.92,31.45 7.29,42.66 14.6,14.6 38.36,14.6 52.96,0 5.79,-5.79 9.44,-13.12 10.58,-21.21 8.1,-1.14 15.43,-4.79 21.23,-10.59 9.3,-9.29 13.01,-22.5 9.9,-35.32 z"
         id="path851"
         style="fill:#ffffff" />
      <path
         class="st0"
         d="m 212.05,176.11 c -6.95,0 -12.58,5.63 -12.58,12.58 0,6.95 5.63,12.58 12.58,12.58 6.95,0 12.58,-5.63 12.58,-12.58 -0.01,-6.95 -5.64,-12.58 -12.58,-12.58 z m 0,19.16 c -3.63,0 -6.58,-2.95 -6.58,-6.58 0,-3.63 2.95,-6.58 6.58,-6.58 3.63,0 6.58,2.95 6.58,6.58 -0.01,3.63 -2.95,6.58 -6.58,6.58 z"
         id="path853" />
    </g>
  </g>
  <style
     type="text/css"
     id="style833">
	.st0{fill:#49D9E8;}
	.st1{fill:#A6A6A6;}
</style>
</svg>
