<?xml version="1.0" encoding="UTF-8" standalone="no"?>
<svg
   width="58.601032mm"
   height="58.577103mm"
   viewBox="0 0 58.601032 58.577103"
   version="1.1"
   id="svg8"
   inkscape:version="1.1 (c68e22c387, 2021-05-23)"
   sodipodi:docname="Isotipo-Invertido.svg"
   xmlns:inkscape="http://www.inkscape.org/namespaces/inkscape"
   xmlns:sodipodi="http://sodipodi.sourceforge.net/DTD/sodipodi-0.dtd"
   xmlns="http://www.w3.org/2000/svg"
   xmlns:svg="http://www.w3.org/2000/svg"
   xmlns:rdf="http://www.w3.org/1999/02/22-rdf-syntax-ns#"
   xmlns:cc="http://creativecommons.org/ns#"
   xmlns:dc="http://purl.org/dc/elements/1.1/">
  <defs
     id="defs2" />
  <sodipodi:namedview
     id="base"
     pagecolor="#ffffff"
     bordercolor="#666666"
     borderopacity="1.0"
     inkscape:pageopacity="0.0"
     inkscape:pageshadow="2"
     inkscape:zoom="1.4"
     inkscape:cx="279.64286"
     inkscape:cy="138.92857"
     inkscape:document-units="mm"
     inkscape:current-layer="g544"
     inkscape:document-rotation="0"
     showgrid="false"
     fit-margin-top="0"
     fit-margin-left="0"
     fit-margin-right="0"
     fit-margin-bottom="0"
     inkscape:window-width="2400"
     inkscape:window-height="1271"
     inkscape:window-x="-9"
     inkscape:window-y="-9"
     inkscape:window-maximized="1"
     inkscape:pagecheckerboard="0" />
  <metadata
     id="metadata5">
    <rdf:RDF>
      <cc:Work
         rdf:about="">
        <dc:format>image/svg+xml</dc:format>
        <dc:type
           rdf:resource="http://purl.org/dc/dcmitype/StillImage" />
      </cc:Work>
    </rdf:RDF>
  </metadata>
  <g
     inkscape:label="Layer 1"
     inkscape:groupmode="layer"
     id="layer1"
     transform="translate(-63.681627,-74.276924)">
    <g
       id="g841"
       transform="matrix(0.26458333,0,0,0.26458333,26.787362,38.118644)">
      <path
         class="st0"
         d="m 329.33,301.35 c -14.42,0 -26.11,11.69 -26.11,26.11 0,14.42 11.69,26.11 26.11,26.11 14.42,0 26.11,-11.69 26.11,-26.11 -0.01,-14.42 -11.69,-26.11 -26.11,-26.11 z m 0,39.76 c -7.54,0 -13.65,-6.11 -13.65,-13.65 0,-7.54 6.11,-13.65 13.65,-13.65 7.54,0 13.65,6.11 13.65,13.65 0,7.53 -6.11,13.65 -13.65,13.65 z"
         id="path835" />
      <g
         id="g544">
        <path
           class="st1"
           d="m 358.69,195.97 -2.92,0.59 c 3.4,21.31 -3.7,43.16 -19,58.46 -26.29,26.29 -68.89,26.46 -94.97,0.38 -26.08,-26.08 -25.91,-68.68 0.38,-94.97 0.44,-0.44 0.89,-0.86 1.34,-1.28 l 0.04,0.04 c 21.72,-19.31 54.72,-18.45 75.13,1.96 21.3,21.3 21.16,56.08 -0.3,77.54 -9.01,9.01 -20.92,14.67 -33.54,15.93 l 0.11,2.98 c 16.77,0.45 32.52,-5.82 44.36,-17.66 23.56,-23.56 23.56,-61.88 0,-85.44 -10.44,-10.44 -24.35,-16.66 -39.13,-17.52 -23.06,-2.08 -45.65,6.09 -61.98,22.42 -30.3,30.3 -30.3,79.61 0,109.91 15.79,15.79 37.44,23.96 59.69,22.61 -3.15,10.99 -9.06,21.02 -17.15,29.12 -26.29,26.29 -68.89,26.46 -94.97,0.38 -22.89,-22.89 -25.76,-59.13 -7.32,-85.63 -3.67,-0.74 -6.18,-3.03 -7.58,-5.91 -3.3,0.04 -9.17,7.36 -13.83,16.91 -14.22,29.68 -8.13,65.26 15.14,88.54 30.3,30.3 79.6,30.3 109.91,0 12.02,-12.02 19.59,-27.22 21.95,-44.03 16.81,-2.36 32.02,-9.94 44.06,-21.98 19.34,-19.34 27.03,-46.75 20.58,-73.35 z"
           id="path837"
           style="fill:#ffffff" />
      </g>
      <path
         class="st0"
         d="m 171.02,193.36 c -14.42,0 -26.11,11.69 -26.11,26.11 0,14.42 11.69,26.11 26.11,26.11 14.42,0 26.11,-11.69 26.11,-26.11 0,-14.43 -11.69,-26.11 -26.11,-26.11 z m 0,39.75 c -7.54,0 -13.65,-6.11 -13.65,-13.65 0,-7.54 6.11,-13.65 13.65,-13.65 7.54,0 13.65,6.11 13.65,13.65 0,7.54 -6.11,13.65 -13.65,13.65 z"
         id="path839" />
    </g>
  </g>
  <style
     type="text/css"
     id="style833">
	.st0{fill:#49D9E8;}
	.st1{fill:#A6A6A6;}
</style>
</svg>
