<?xml version="1.0" encoding="UTF-8" standalone="no"?>
<svg
   width="90.648895mm"
   height="22.648333mm"
   viewBox="0 0 90.648895 22.648333"
   version="1.1"
   id="svg8"
   inkscape:version="1.1 (c68e22c387, 2021-05-23)"
   sodipodi:docname="Logotipo-Invertido.svg"
   xmlns:inkscape="http://www.inkscape.org/namespaces/inkscape"
   xmlns:sodipodi="http://sodipodi.sourceforge.net/DTD/sodipodi-0.dtd"
   xmlns="http://www.w3.org/2000/svg"
   xmlns:svg="http://www.w3.org/2000/svg"
   xmlns:rdf="http://www.w3.org/1999/02/22-rdf-syntax-ns#"
   xmlns:cc="http://creativecommons.org/ns#"
   xmlns:dc="http://purl.org/dc/elements/1.1/">
  <defs
     id="defs2" />
  <sodipodi:namedview
     id="base"
     pagecolor="#ffffff"
     bordercolor="#666666"
     borderopacity="1.0"
     inkscape:pageopacity="0.0"
     inkscape:pageshadow="2"
     inkscape:zoom="0.98994949"
     inkscape:cx="195.46452"
     inkscape:cy="151.01781"
     inkscape:document-units="mm"
     inkscape:current-layer="g864"
     inkscape:document-rotation="0"
     showgrid="false"
     fit-margin-top="0"
     fit-margin-left="0"
     fit-margin-right="0"
     fit-margin-bottom="0"
     inkscape:window-width="1920"
     inkscape:window-height="1001"
     inkscape:window-x="2391"
     inkscape:window-y="232"
     inkscape:window-maximized="1"
     inkscape:pagecheckerboard="0" />
  <metadata
     id="metadata5">
    <rdf:RDF>
      <cc:Work
         rdf:about="">
        <dc:format>image/svg+xml</dc:format>
        <dc:type
           rdf:resource="http://purl.org/dc/dcmitype/StillImage" />
      </cc:Work>
    </rdf:RDF>
  </metadata>
  <g
     inkscape:label="Layer 1"
     inkscape:groupmode="layer"
     id="layer1"
     transform="translate(-56.887597,-18.000623)">
    <g
       id="g864"
       transform="matrix(0.26458333,0,0,0.26458333,36.014618,-38.350335)">
      <path
         class="st0"
         d="m 159.71,213.47 h 6.49 l -19.38,57.88 h -6.97 L 122.34,221.9 h -0.16 l -17.11,49.45 H 98.1 L 78.89,213.47 h 6.65 l 16.05,49.94 h 0.16 l 17.11,-49.94 h 7.38 l 17.11,49.94 h 0.16 z"
         id="path835"
         style="fill:#ffffff" />
      <path
         class="st0"
         d="m 171.38,212.98 h 6 v 8.92 h -6 z m 0,16.22 h 6 l 0.08,42.16 h -6 z"
         id="path837"
         style="fill:#ffffff" />
      <path
         class="st0"
         d="m 223.91,244.2 c 0,-8.43 -5.19,-11.27 -12.73,-11.27 -11.76,0 -17.11,5.92 -17.11,15.57 l 0.08,22.86 h -6 l -0.08,-42.16 h 6 v 8.27 h 0.16 c 1.7,-4.54 8.11,-9.57 17.43,-9.57 13.94,0 18.24,7.3 18.24,17.35 l 0.08,26.1 h -6 z"
         id="path839"
         style="fill:#ffffff" />
      <path
         class="st0"
         d="m 279.6,262.92 h -0.16 c -1.7,3.57 -6.89,9.73 -17.19,9.73 -17.19,0 -22.94,-12.08 -22.94,-22.38 0,-11.75 7.22,-22.37 22.94,-22.37 8.03,0 14.43,4.38 17.19,9.73 h 0.16 v -24.64 h 6 l 0.08,58.37 h -6 z m -17.35,-29.99 c -9.49,0 -16.94,6.65 -16.94,17.35 0,8.43 4.7,17.35 16.94,17.35 9.97,0 17.67,-6.32 17.67,-17.35 0.01,-8.68 -5.42,-17.35 -17.67,-17.35 z"
         id="path841"
         style="fill:#ffffff" />
      <path
         class="st0"
         d="m 330.92,229.2 h 6.49 l -27.25,60.87 c -3,6.65 -5.76,8.51 -12.32,8.51 h -2.92 c -0.97,0 -1.95,-0.08 -2.84,-0.16 v -5.03 c 1.3,0.08 2.68,0.16 4.3,0.16 4.3,0 6.4,-0.97 8.35,-5.19 l 7.14,-16.69 -20.43,-42.48 h 6.41 l 17.19,35.1 z"
         id="path843"
         style="fill:#ffffff" />
      <path
         class="st1"
         d="m 345.68,246.88 v -31.7 h 10.43 v 31.3 c 0,11.56 5.22,16.53 14.28,16.53 9.07,0 14.2,-4.97 14.2,-16.53 v -31.3 h 10.27 v 31.7 c 0,16.37 -9.23,25.28 -24.56,25.28 -15.4,0 -24.62,-8.91 -24.62,-25.28 z"
         id="path845"
         style="fill:#49d9e8;fill-opacity:1" />
      <path
         class="st1"
         d="m 411.07,215.18 h 10.43 v 56.17 h -10.43 z"
         id="path847"
         style="fill:#49d9e8;fill-opacity:1" />
    </g>
  </g>
  <style
     type="text/css"
     id="style833">
	.st0{fill:#49D9E8;}
	.st1{fill:#A6A6A6;}
</style>
</svg>
