<?xml version="1.0" encoding="UTF-8" standalone="no"?>
<svg
   xmlns:dc="http://purl.org/dc/elements/1.1/"
   xmlns:cc="http://creativecommons.org/ns#"
   xmlns:rdf="http://www.w3.org/1999/02/22-rdf-syntax-ns#"
   xmlns:svg="http://www.w3.org/2000/svg"
   xmlns="http://www.w3.org/2000/svg"
   xmlns:sodipodi="http://sodipodi.sourceforge.net/DTD/sodipodi-0.dtd"
   xmlns:inkscape="http://www.inkscape.org/namespaces/inkscape"
   width="6.3499999mm"
   height="6.3499994mm"
   viewBox="0 0 6.3499999 6.3499994"
   version="1.1"
   id="svg8"
   inkscape:version="1.0.1 (3bc2e813f5, 2020-09-07)"
   sodipodi:docname="donate-solid.svg">
  <defs
     id="defs2" />
  <sodipodi:namedview
     id="base"
     pagecolor="#ffffff"
     bordercolor="#666666"
     borderopacity="1.0"
     inkscape:pageopacity="0.0"
     inkscape:pageshadow="2"
     inkscape:zoom="5.6"
     inkscape:cx="30.996929"
     inkscape:cy="27.152914"
     inkscape:document-units="mm"
     inkscape:current-layer="layer1"
     inkscape:document-rotation="0"
     showgrid="false"
     fit-margin-top="0"
     fit-margin-left="0"
     fit-margin-right="0"
     fit-margin-bottom="0"
     inkscape:window-width="1920"
     inkscape:window-height="1001"
     inkscape:window-x="2391"
     inkscape:window-y="295"
     inkscape:window-maximized="1" />
  <metadata
     id="metadata5">
    <rdf:RDF>
      <cc:Work
         rdf:about="">
        <dc:format>image/svg+xml</dc:format>
        <dc:type
           rdf:resource="http://purl.org/dc/dcmitype/StillImage" />
        <dc:title></dc:title>
      </cc:Work>
    </rdf:RDF>
  </metadata>
  <g
     inkscape:label="Layer 1"
     inkscape:groupmode="layer"
     id="layer1"
     transform="translate(-21.077665,-0.85472569)">
    <path
       fill="currentColor"
       d="m 24.252665,6.0141003 c 1.425029,0 2.579687,-1.154658 2.579687,-2.579687 0,-1.4250296 -1.154658,-2.57968761 -2.579687,-2.57968761 -1.425029,0 -2.579687,1.15465801 -2.579687,2.57968761 0,1.425029 1.154658,2.579687 2.579687,2.579687 z M 23.977333,2.0627137 v -0.208359 c 0,-0.114102 0.09178,-0.205879 0.205879,-0.205879 h 0.137666 c 0.114102,0 0.205879,0.09178 0.205879,0.205879 v 0.21084 c 0.192236,0.0099 0.378271,0.07565 0.533301,0.190996 0.06945,0.05085 0.07689,0.152549 0.01488,0.21208 l -0.202158,0.192236 c -0.04713,0.04589 -0.117822,0.04713 -0.173633,0.0124 -0.06697,-0.04217 -0.141386,-0.06325 -0.220761,-0.06325 h -0.482451 c -0.111622,0 -0.202159,0.1016986 -0.202159,0.2269626 0,0.101699 0.06201,0.192236 0.150069,0.218281 l 0.772666,0.231924 c 0.31874,0.0955 0.541982,0.401836 0.541982,0.745381 0,0.421679 -0.327422,0.762744 -0.732978,0.773906 v 0.208359 c 0,0.114102 -0.09178,0.205879 -0.205879,0.205879 H 24.18197 c -0.114102,0 -0.205879,-0.09178 -0.205879,-0.205879 v -0.21084 c -0.192237,-0.0099 -0.378272,-0.07565 -0.533301,-0.190996 -0.06945,-0.05085 -0.0769,-0.152549 -0.01488,-0.21208 l 0.202158,-0.192236 c 0.04713,-0.04589 0.117823,-0.04713 0.173633,-0.0124 0.06697,0.04217 0.141387,0.06325 0.220762,0.06325 h 0.482451 c 0.111621,0 0.202158,-0.101699 0.202158,-0.226962 0,-0.1017 -0.06201,-0.192237 -0.150068,-0.218282 l -0.772666,-0.231924 c -0.31874,-0.0955 -0.541983,-0.401836 -0.541983,-0.74538 0.0012,-0.4216796 0.327422,-0.7627446 0.732978,-0.7739066 z m 3.053457,3.1576366 h -0.403076 c -0.243086,0.322461 -0.553145,0.591592 -0.905371,0.79375 h 0.791269 c 0.06573,0 0.119063,0.04465 0.119063,0.09922 v 0.198437 c 0,0.05457 -0.05333,0.09922 -0.119063,0.09922 h -4.523134 c -0.06573,0 -0.119063,-0.04465 -0.119063,-0.09922 v -0.198437 c 0,-0.05457 0.05333,-0.09922 0.119063,-0.09922 h 0.791269 C 22.42952,5.8119423 22.120702,5.5428113 21.876376,5.2203503 H 21.47454 c -0.219521,0 -0.396875,0.177354 -0.396875,0.396875 v 1.190625 c 0,0.219522 0.177354,0.396875 0.396875,0.396875 h 5.55625 c 0.219522,0 0.396875,-0.177353 0.396875,-0.396875 v -1.190625 c 0,-0.219521 -0.177353,-0.396875 -0.396875,-0.396875 z"
       id="path866"
       style="stroke-width:0.0124023" />
  </g>
</svg>
