<?xml version="1.0" encoding="UTF-8" standalone="no"?>
<svg
   xmlns:dc="http://purl.org/dc/elements/1.1/"
   xmlns:cc="http://creativecommons.org/ns#"
   xmlns:rdf="http://www.w3.org/1999/02/22-rdf-syntax-ns#"
   xmlns:svg="http://www.w3.org/2000/svg"
   xmlns="http://www.w3.org/2000/svg"
   xmlns:sodipodi="http://sodipodi.sourceforge.net/DTD/sodipodi-0.dtd"
   xmlns:inkscape="http://www.inkscape.org/namespaces/inkscape"
   width="6.3500848mm"
   height="6.3500004mm"
   viewBox="0 0 6.3500848 6.3500004"
   version="1.1"
   id="svg8"
   inkscape:version="1.0.1 (3bc2e813f5, 2020-09-07)"
   sodipodi:docname="github-brands.svg">
  <defs
     id="defs2" />
  <sodipodi:namedview
     id="base"
     pagecolor="#ffffff"
     bordercolor="#666666"
     borderopacity="1.0"
     inkscape:pageopacity="0.0"
     inkscape:pageshadow="2"
     inkscape:zoom="2.8"
     inkscape:cx="145.97816"
     inkscape:cy="60.480404"
     inkscape:document-units="mm"
     inkscape:current-layer="layer1"
     inkscape:document-rotation="0"
     showgrid="false"
     fit-margin-top="0"
     fit-margin-left="0"
     fit-margin-right="0"
     fit-margin-bottom="0"
     inkscape:window-width="1920"
     inkscape:window-height="1001"
     inkscape:window-x="2391"
     inkscape:window-y="295"
     inkscape:window-maximized="1" />
  <metadata
     id="metadata5">
    <rdf:RDF>
      <cc:Work
         rdf:about="">
        <dc:format>image/svg+xml</dc:format>
        <dc:type
           rdf:resource="http://purl.org/dc/dcmitype/StillImage" />
        <dc:title></dc:title>
      </cc:Work>
    </rdf:RDF>
  </metadata>
  <g
     inkscape:label="Layer 1"
     inkscape:groupmode="layer"
     id="layer1"
     transform="translate(-10.569926,-9.2457956)">
    <path
       fill="currentColor"
       d="m 12.693848,14.358808 c 0,0.02626 -0.02945,0.04727 -0.06657,0.04727 -0.04225,0.0039 -0.07169,-0.01707 -0.07169,-0.04727 0,-0.02626 0.02944,-0.04727 0.06657,-0.04727 0.03841,-0.0039 0.07169,0.01707 0.07169,0.04727 z m -0.398156,-0.05909 c -0.009,0.02626 0.01664,0.05646 0.05505,0.06434 0.03329,0.01313 0.07169,0 0.07937,-0.02626 0.0077,-0.02626 -0.01664,-0.05646 -0.05505,-0.06828 -0.03329,-0.0092 -0.07041,0.0039 -0.07937,0.0302 z m 0.565867,-0.02232 c -0.03713,0.0092 -0.06273,0.03414 -0.05889,0.06434 0.0038,0.02626 0.03713,0.04333 0.07554,0.03414 0.03713,-0.0092 0.06273,-0.03414 0.05889,-0.0604 -0.0038,-0.02495 -0.03841,-0.04202 -0.07554,-0.03808 z m 0.8424,-5.0316024 c -1.775696,0 -3.134033,1.3826404 -3.134033,3.2038394 0,1.45617 0.893609,2.702253 2.17001,3.140811 0.163871,0.0302 0.221482,-0.07353 0.221482,-0.158879 0,-0.08141 -0.0038,-0.530471 -0.0038,-0.806211 0,0 -0.89617,0.196957 -1.084365,-0.391289 0,0 -0.145948,-0.382096 -0.355908,-0.480575 0,0 -0.293175,-0.206149 0.02048,-0.20221 0,0 0.318781,0.02626 0.494174,0.338767 0.280373,0.506836 0.750222,0.361088 0.933296,0.274426 0.02945,-0.210087 0.112662,-0.355835 0.204839,-0.442497 -0.715655,-0.08141 -1.437712,-0.187765 -1.437712,-1.450918 0,-0.361088 0.0973,-0.542289 0.302137,-0.773386 -0.03329,-0.08535 -0.142107,-0.437245 0.03329,-0.89156 0.26757,-0.08535 0.883367,0.354523 0.883367,0.354523 0.256048,-0.07353 0.5313,-0.111609 0.803991,-0.111609 0.272692,0 0.547944,0.03808 0.803993,0.111609 0,0 0.615796,-0.441184 0.883367,-0.354523 0.175393,0.455628 0.06657,0.806212 0.03329,0.89156 0.204839,0.23241 0.330303,0.413611 0.330303,0.773386 0,1.267092 -0.754063,1.368197 -1.469718,1.450918 0.117782,0.103731 0.217641,0.300689 0.217641,0.609255 0,0.442497 -0.0038,0.990038 -0.0038,1.097708 0,0.08535 0.05889,0.189079 0.221482,0.158879 1.280242,-0.435932 2.148246,-1.682015 2.148246,-3.138185 0,-1.821199 -1.440272,-3.2038394 -3.215968,-3.2038394 z m -1.889638,4.5287054 c -0.01664,0.01313 -0.0128,0.04333 0.009,0.06828 0.02048,0.02101 0.04993,0.0302 0.06657,0.01313 0.01664,-0.01313 0.0128,-0.04333 -0.009,-0.06828 -0.02048,-0.02101 -0.04993,-0.0302 -0.06657,-0.01313 z m -0.138266,-0.106357 c -0.009,0.01707 0.0038,0.03808 0.02945,0.05121 0.02048,0.01313 0.04609,0.0092 0.05505,-0.0092 0.009,-0.01707 -0.0038,-0.03808 -0.02945,-0.05121 -0.0256,-0.0079 -0.04609,-0.0039 -0.05505,0.0092 z m 0.414799,0.467445 c -0.02048,0.01707 -0.0128,0.05646 0.01664,0.08141 0.02944,0.0302 0.06657,0.03414 0.08322,0.01313 0.01664,-0.01707 0.009,-0.05646 -0.01664,-0.08141 -0.02817,-0.0302 -0.06657,-0.03414 -0.08322,-0.01313 z m -0.145948,-0.193018 c -0.02048,0.01313 -0.02048,0.04727 0,0.07747 0.02048,0.0302 0.05505,0.04333 0.07169,0.0302 0.02048,-0.01707 0.02048,-0.05121 0,-0.08141 -0.01792,-0.0302 -0.05121,-0.04333 -0.07169,-0.02626 z"
       id="path855"
       style="stroke-width:0.0129654" />
  </g>
</svg>
